<svg id="visual" viewBox="0 0 900 600" width="900" height="600" xmlns="http://www.w3.org/2000/svg" xmlns:xlink="http://www.w3.org/1999/xlink" version="1.1"><g transform="translate(478.11343086651533 363.21997531693387)"><path d="M133.8 -276.1C156.6 -218.6 146.7 -148.8 173.5 -100.7C200.2 -52.7 263.6 -26.3 286.6 13.2C309.5 52.8 292 105.7 259.5 143.8C227 181.9 179.5 205.3 133.8 224.7C88 244.1 44 259.5 12.6 237.7C-18.8 215.8 -37.5 156.6 -102.5 148.3C-167.4 140 -278.6 182.5 -325 166.2C-371.5 150 -353.2 75 -322.8 17.6C-292.3 -39.8 -249.7 -79.7 -219.1 -123.4C-188.5 -167.1 -170 -214.8 -135.5 -265.5C-101 -316.3 -50.5 -370.1 2.5 -374.5C55.5 -378.8 111 -333.6 133.8 -276.1" fill="#00293D"></path></g></svg>