<?xml version="1.0" encoding="UTF-8" standalone="no" ?>
<!DOCTYPE svg PUBLIC "-//W3C//DTD SVG 1.1//EN" "http://www.w3.org/Graphics/SVG/1.1/DTD/svg11.dtd">
<svg xmlns="http://www.w3.org/2000/svg" xmlns:xlink="http://www.w3.org/1999/xlink" version="1.1" width="1080" height="1080" viewBox="0 0 1080 1080" xml:space="preserve">
<desc>Created with Fabric.js 4.2.0</desc>
<defs>
</defs>
<g transform="matrix(1 0 0 1 540 540)" id="8cfbca80-9b35-4920-9506-9e2b6b91f700"  >
<rect style="stroke: none; stroke-width: 1; stroke-dasharray: none; stroke-linecap: butt; stroke-dashoffset: 0; stroke-linejoin: miter; stroke-miterlimit: 4; fill: rgb(255,255,255); fill-rule: nonzero; opacity: 1; visibility: hidden;" vector-effect="non-scaling-stroke"  x="-540" y="-540" rx="0" ry="0" width="1080" height="1080" />
</g>
<g transform="matrix(1 0 0 1 540 540)" id="8823254e-2316-4a25-ac0f-8bf19c8bc100"  >
</g>
<g transform="matrix(1 0 0 1 465.35 554.28)"  >
<path style="stroke: rgb(0,0,0); stroke-width: 30; stroke-dasharray: none; stroke-linecap: round; stroke-dashoffset: 0; stroke-linejoin: round; stroke-miterlimit: 10; fill: none; fill-rule: nonzero; opacity: 1;" vector-effect="non-scaling-stroke"  transform=" translate(-465.35, -554.28)" d="M 341.2267324955117 497.19113105924595 Q 341.2567324955117 497.161131059246 350.951526032316 496.1916517055655 Q 360.6463195691203 495.2221723518851 380.03590664272895 490.3747755834829 Q 399.42549371633754 485.5273788150808 412.99820466786355 481.6494614003591 Q 426.5709156193896 477.7715439856374 439.1741472172352 469.0462298025135 Q 451.7773788150808 460.3209156193896 464.38061041292644 448.68716337522443 Q 476.98384201077204 437.05341113105925 496.37342908438063 412.8164272890485 Q 515.7630161579892 388.5794434470377 522.5493716337522 377.915170556553 Q 529.3357271095152 367.2508976660682 533.213644524237 360.4645421903052 Q 537.0915619389588 353.6781867145422 540 348.83078994614004 Q 542.9084380610414 343.9833931777379 544.8473967684022 340.1054757630162 Q 546.786355475763 336.22755834829445 548.7253141831238 333.31912028725316 Q 550.6642728904848 330.41068222621186 551.6337522441652 329.44120287253145 Q 552.6032315978456 328.471723518851 552.6032315978456 332.3496409335727 Q 552.6032315978456 336.22755834829445 548.7253141831238 342.04443447037704 Q 544.8473967684022 347.86131059245963 539.0305206463196 357.55610412926393 Q 533.213644524237 367.2508976660682 519.640933572711 385.6710053859964 Q 506.06822262118493 404.0911131059246 482.8007181328546 439.96184919210054 Q 459.53321364452427 475.8325852782765 440.14362657091567 503.947486535009 Q 420.754039497307 532.0623877917415 379.0664272890485 588.2921903052065 Q 337.37881508078993 644.5219928186715 318.95870736086175 670.6979353680431 Q 300.53859964093357 696.8738779174148 285.0269299820467 712.3855475763016 Q 269.5152603231598 727.8972172351886 259.8204667863555 745.3478456014363 Q 250.12567324955117 762.798473967684 246.24775583482943 769.584829443447 Q 242.36983842010773 776.3711849192101 242.36983842010773 778.310143626571 Q 242.36983842010773 780.2491023339318 242.36983842010773 777.3406642728905 Q 242.36983842010773 774.4322262118492 247.2172351885099 761.8289946140036 Q 252.06463195691205 749.225763016158 260.7899461400359 738.5614901256733 Q 269.5152603231598 727.8972172351886 286.96588868940756 705.5991921005386 Q 304.41651705565533 683.3011669658887 323.80610412926393 646.4609515260323 Q 343.1956912028725 609.620736086176 366.4631956912029 577.6279174147218 Q 389.73070017953324 545.6350987432676 411.0592459605027 518.4896768402155 Q 432.3877917414722 491.3442549371634 448.8689407540395 471.95466786355473 Q 465.35008976660686 452.56508078994614 488.6175942549372 432.20601436265713 Q 511.8850987432675 411.84694793536806 525.4578096947936 405.060592459605 Q 539.0305206463196 398.274236983842 558.4201077199282 389.5489228007182 Q 577.8096947935368 380.8236086175943 602.0466786355476 376.9456912028726 Q 626.2836624775583 373.0677737881508 634.0394973070017 372.0982944344704 Q 641.7953321364453 371.12881508078993 647.6122082585279 371.12881508078993 Q 653.4290843806104 371.12881508078993 657.3070017953321 371.12881508078993 Q 661.1849192100539 371.12881508078993 667.0017953321365 371.12881508078993 Q 672.818671454219 371.12881508078993 677.6660682226212 371.12881508078993 Q 682.5134649910234 371.12881508078993 684.4524236983842 371.12881508078993 Q 686.391382405745 371.12881508078993 687.3608617594255 373.0677737881508 Q 688.330341113106 375.0067324955117 688.330341113106 376.9456912028726 Q 688.330341113106 378.8846499102334 688.330341113106 380.82360861759423 Q 688.330341113106 382.7625673249551 688.330341113106 383.7320466786356 Q 688.330341113106 384.701526032316 682.5134649910234 388.57944344703776 Q 676.6965888689408 392.45736086175947 671.8491921005386 399.24371633752247 Q 667.0017953321365 406.0300718132855 656.3375224416518 417.66382405745065 Q 645.673249551167 429.29757630161583 632.1005385996409 444.8092459605027 Q 618.5278276481149 460.3209156193896 603.9856373429084 473.89362657091567 Q 589.443447037702 487.4663375224417 553.572710951526 505.88644524236986 Q 517.7019748653502 524.306552962298 496.37342908438063 534.0013464991023 Q 475.04488330341115 543.6961400359066 452.74685816876126 547.5740574506284 L 430.41883303411134 551.4819748653501" stroke-linecap="round" />
</g>
<g transform="matrix(1 0 0 1 120.24 498.12)"  >
<path style="stroke: rgb(0,0,0); stroke-width: 30; stroke-dasharray: none; stroke-linecap: round; stroke-dashoffset: 0; stroke-linejoin: round; stroke-miterlimit: 10; fill: none; fill-rule: nonzero; opacity: 1;" vector-effect="non-scaling-stroke"  transform=" translate(-120.23, -498.12)" d="M 164.84149012567326 388.54944344703773 Q 164.81149012567326 388.5794434470377 161.90305206463196 394.3963195691203 Q 158.99461400359067 400.2131956912029 146.39138240574505 416.6943447037702 Q 133.78815080789946 433.17549371633754 120.21543985637342 452.56508078994614 Q 106.6427289048474 471.9546678635548 88.2226211849192 494.2526929982047 Q 69.80251346499102 516.5507181328546 59.138240574506284 534.0013464991024 Q 48.473967684021545 551.4519748653502 44.59605026929982 560.177289048474 Q 40.7181328545781 568.9026032315978 35.870736086175945 577.6279174147217 Q 31.02333931777379 586.3532315978456 29.08438061041293 588.2921903052065 Q 27.145421903052068 590.2311490125674 27.145421903052068 592.1701077199282 Q 27.145421903052068 594.1090664272891 27.145421903052068 595.0785457809695 Q 27.145421903052068 596.04802513465 28.114901256732498 598.9564631956912 Q 29.08438061041293 601.8649012567325 33.931777378815084 603.8038599640934 Q 38.77917414721723 605.7428186714543 46.535008976660684 606.7122980251347 Q 54.290843806104135 607.6817773788151 75.61938958707361 607.6817773788151 Q 96.94793536804309 607.6817773788151 126.03231597845601 606.7122980251347 Q 155.11669658886893 605.7428186714543 184.20107719928188 603.8038599640934 L 213.3154578096948 601.8349012567326" stroke-linecap="round" />
</g>
<g transform="matrix(1 0 0 1 900.63 512.67)"  >
<path style="stroke: rgb(0,0,0); stroke-width: 30; stroke-dasharray: none; stroke-linecap: round; stroke-dashoffset: 0; stroke-linejoin: round; stroke-miterlimit: 10; fill: none; fill-rule: nonzero; opacity: 1;" vector-effect="non-scaling-stroke"  transform=" translate(-900.63, -512.67)" d="M 806.5768222621185 386.6104847396769 Q 806.6068222621185 386.6404847396769 813.3931777378815 387.6099640933573 Q 820.1795332136445 388.5794434470377 829.8743267504489 390.5184021543986 Q 839.5691202872532 392.45736086175947 846.3554757630162 393.4268402154399 Q 853.1418312387792 394.3963195691203 859.9281867145422 394.3963195691203 Q 866.7145421903052 394.3963195691203 872.5314183123878 395.36579892280076 Q 878.3482944344704 396.3352782764812 884.165170556553 396.3352782764812 Q 889.9820466786356 396.3352782764812 896.7684021543986 399.24371633752247 Q 903.5547576301616 402.15215439856377 908.4021543985638 405.06059245960506 Q 913.249551166966 407.96903052064636 918.096947935368 408.93850987432677 Q 922.9443447037702 409.9079892280072 926.822262118492 410.8774685816876 Q 930.7001795332137 411.84694793536806 932.6391382405745 411.84694793536806 Q 934.5780969479354 411.84694793536806 937.4865350089767 412.81642728904853 Q 940.394973070018 413.78590664272895 942.3339317773789 413.78590664272895 Q 944.2728904847397 413.78590664272895 944.2728904847397 414.75538599640936 Q 944.2728904847397 415.7248653500898 945.2423698384201 415.7248653500898 Q 946.2118491921005 415.7248653500898 947.1813285457811 415.7248653500898 Q 948.1508078994615 415.7248653500898 949.1202872531419 415.7248653500898 Q 950.0897666068223 415.7248653500898 954.9371633752245 415.7248653500898 Q 959.7845601436267 415.7248653500898 960.7540394973071 415.7248653500898 Q 961.7235188509875 415.7248653500898 963.6624775583484 415.7248653500898 Q 965.6014362657093 415.7248653500898 967.5403949730701 415.7248653500898 Q 969.4793536804309 415.7248653500898 970.4488330341113 416.6943447037702 Q 971.4183123877917 417.66382405745065 973.3572710951526 418.6333034111311 Q 975.2962298025135 419.60278276481154 980.1436265709157 419.60278276481154 Q 984.9910233393178 419.60278276481154 985.9605026929983 420.57226211849195 Q 986.9299820466787 421.54174147217236 987.8994614003591 421.54174147217236 Q 988.8689407540395 421.54174147217236 989.8384201077199 422.5112208258528 Q 990.8078994614004 423.48070017953324 992.7468581687613 423.48070017953324 Q 994.6858168761221 423.48070017953324 994.6858168761221 424.45017953321366 Q 994.6858168761221 425.41965888689407 960.7540394973071 465.16831238779173 Q 926.822262118492 504.91696588868945 902.5852782764812 534.0013464991023 Q 878.3482944344704 563.0857271095152 865.7450628366248 578.5973967684022 Q 853.1418312387792 594.1090664272891 844.4165170556553 605.7428186714542 Q 835.6912028725314 617.3765709156194 833.7522441651706 623.193447037702 Q 831.8132854578097 629.0103231597845 830.8438061041293 633.8577199281867 L 829.8443267504489 638.7351166965889" stroke-linecap="round" />
</g>
</svg>