<?xml version="1.0" encoding="UTF-8" standalone="no" ?>
<!DOCTYPE svg PUBLIC "-//W3C//DTD SVG 1.1//EN" "http://www.w3.org/Graphics/SVG/1.1/DTD/svg11.dtd">
<svg xmlns="http://www.w3.org/2000/svg" xmlns:xlink="http://www.w3.org/1999/xlink" version="1.1" width="100" height="100" viewBox="0 0 100 100" xml:space="preserve">
<desc>Created with Fabric.js 4.2.0</desc>
<defs>
</defs>
<g transform="matrix(1 0 0 1 540 540)" id="a0ec6a99-ab5a-44f0-ae00-64ded3a5fa37"  >
</g>
<g transform="matrix(1 0 0 1 540 540)" id="1d7ca899-9157-4d8f-a347-4e08f6b25d5e"  >
<rect style="stroke: none; stroke-width: 1; stroke-dasharray: none; stroke-linecap: butt; stroke-dashoffset: 0; stroke-linejoin: miter; stroke-miterlimit: 4; fill: rgb(255,255,255); fill-rule: nonzero; opacity: 1; visibility: hidden;" vector-effect="non-scaling-stroke"  x="-540" y="-540" rx="0" ry="0" width="1080" height="1080" />
</g>
<g transform="matrix(1 0 0 1 45 46.87)"  >
<path style="stroke: rgb(0,0,0); stroke-width: 1; stroke-dasharray: none; stroke-linecap: round; stroke-dashoffset: 0; stroke-linejoin: round; stroke-miterlimit: 10; fill: none; fill-rule: nonzero; opacity: 1;" vector-effect="non-scaling-stroke"  transform=" translate(-45.5, -47.37)" d="M 30.499 42.90525 Q 30.5 42.90625 30.5 43.40625 Q 30.5 43.90625 31.5 44.40625 Q 32.5 44.90625 33.5 45.90625 Q 34.5 46.90625 35 46.90625 Q 35.5 46.90625 37 46.90625 Q 38.5 46.90625 39 46.90625 Q 39.5 46.90625 40 46.90625 Q 40.5 46.90625 41 46.40625 Q 41.5 45.90625 42 45.90625 Q 42.5 45.90625 43 45.40625 Q 43.5 44.90625 44.5 44.40625 Q 45.5 43.90625 46 42.90625 Q 46.5 41.90625 47 41.40625 Q 47.5 40.90625 47.5 40.40625 Q 47.5 39.90625 47.5 39.40625 Q 47.5 38.90625 47.5 38.40625 Q 47.5 37.90625 48 36.90625 Q 48.5 35.90625 48.5 35.40625 Q 48.5 34.90625 49 34.40625 Q 49.5 33.90625 49.5 33.40625 Q 49.5 32.90625 49 33.40625 Q 48.5 33.90625 48.5 34.40625 Q 48.5 34.90625 48.5 35.40625 Q 48.5 35.90625 48.5 36.40625 Q 48.5 36.90625 48 37.40625 Q 47.5 37.90625 47 39.40625 Q 46.5 40.90625 46.5 41.40625 Q 46.5 41.90625 46.5 42.40625 Q 46.5 42.90625 45.5 42.90625 Q 44.5 42.90625 44.5 43.40625 Q 44.5 43.90625 44.5 44.40625 Q 44.5 44.90625 44 45.90625 Q 43.5 46.90625 43 47.90625 Q 42.5 48.90625 42 50.40625 Q 41.5 51.90625 41 52.90625 Q 40.5 53.90625 40 54.40625 Q 39.5 54.90625 39.5 55.90625 Q 39.5 56.90625 39.5 57.90625 Q 39.5 58.90625 39.5 59.40625 Q 39.5 59.90625 39 60.40625 Q 38.5 60.90625 38.5 61.40625 Q 38.5 61.90625 39 60.40625 Q 39.5 58.90625 40 57.90625 Q 40.5 56.90625 41 55.90625 Q 41.5 54.90625 41.5 54.40625 Q 41.5 53.90625 42 53.40625 Q 42.5 52.90625 43 51.90625 Q 43.5 50.90625 44 50.40625 Q 44.5 49.90625 45 48.90625 Q 45.5 47.90625 46 46.90625 Q 46.5 45.90625 47.5 44.90625 Q 48.5 43.90625 48.5 43.40625 Q 48.5 42.90625 50 41.90625 Q 51.5 40.90625 52 40.90625 Q 52.5 40.90625 53 39.90625 Q 53.5 38.90625 53.5 38.40625 Q 53.5 37.90625 54.5 37.40625 Q 55.5 36.90625 56 36.90625 Q 56.5 36.90625 57 36.90625 Q 57.5 36.90625 58.5 36.90625 Q 59.5 36.90625 60 37.40625 Q 60.5 37.90625 60.5 38.90625 Q 60.5 39.90625 60.5 40.40625 Q 60.5 40.90625 60.5 41.40625 Q 60.5 41.90625 60.5 42.90625 Q 60.5 43.90625 59.5 43.90625 Q 58.5 43.90625 58 44.40625 Q 57.5 44.90625 57 45.40625 Q 56.5 45.90625 55.5 45.90625 Q 54.5 45.90625 53.5 45.90625 Q 52.5 45.90625 51.5 45.90625 Q 50.5 45.90625 49.5 45.90625 Q 48.5 45.90625 48 45.90625 Q 47.5 45.90625 46.5 45.90625 Q 45.5 45.90625 44.5 46.90625 Q 43.5 47.90625 43 47.90625 Q 42.5 47.90625 41.5 47.90625 Q 40.5 47.90625 39.5 47.90625 Q 38.5 47.90625 38 47.90625 L 37.499 47.90625" stroke-linecap="round" />
</g>
<g transform="matrix(1 0 0 1 24 46.41)"  >
<path style="stroke: rgb(0,0,0); stroke-width: 1; stroke-dasharray: none; stroke-linecap: round; stroke-dashoffset: 0; stroke-linejoin: round; stroke-miterlimit: 10; fill: none; fill-rule: nonzero; opacity: 1;" vector-effect="non-scaling-stroke"  transform=" translate(-24.5, -46.91)" d="M 28.501 39.90525 Q 28.5 39.90625 27.5 39.90625 Q 26.5 39.90625 26 40.40625 Q 25.5 40.90625 25 40.90625 Q 24.5 40.90625 23.5 41.40625 Q 22.5 41.90625 22 41.90625 Q 21.5 41.90625 21 41.90625 Q 20.5 41.90625 20 41.90625 Q 19.5 41.90625 19.5 42.40625 Q 19.5 42.90625 19 43.40625 Q 18.5 43.90625 18 44.40625 Q 17.5 44.90625 17 45.40625 Q 16.5 45.90625 16 45.90625 Q 15.5 45.90625 15.5 46.40625 Q 15.5 46.90625 17 47.40625 Q 18.5 47.90625 20.5 48.90625 Q 22.5 49.90625 24 50.40625 Q 25.5 50.90625 27 50.90625 Q 28.5 50.90625 29.5 51.40625 Q 30.5 51.90625 31.5 52.40625 Q 32.5 52.90625 32.5 53.40625 Q 32.5 53.90625 33 53.90625 L 33.501 53.90625" stroke-linecap="round" />
</g>
<g transform="matrix(1 0 0 1 71.5 48.91)"  >
<path style="stroke: rgb(0,0,0); stroke-width: 1; stroke-dasharray: none; stroke-linecap: round; stroke-dashoffset: 0; stroke-linejoin: round; stroke-miterlimit: 10; fill: none; fill-rule: nonzero; opacity: 1;" vector-effect="non-scaling-stroke"  transform=" translate(-72, -49.41)" d="M 65.499 42.90625 Q 65.5 42.90625 66 43.40625 Q 66.5 43.90625 67.5 43.90625 Q 68.5 43.90625 69.5 43.90625 Q 70.5 43.90625 71 43.90625 Q 71.5 43.90625 72.5 44.40625 Q 73.5 44.90625 74 44.90625 Q 74.5 44.90625 75 44.90625 Q 75.5 44.90625 76 45.40625 Q 76.5 45.90625 77 45.90625 Q 77.5 45.90625 77.5 46.40625 Q 77.5 46.90625 78 46.90625 Q 78.5 46.90625 78.5 47.40625 Q 78.5 47.90625 77.5 47.90625 Q 76.5 47.90625 76 47.90625 Q 75.5 47.90625 75 48.40625 Q 74.5 48.90625 73 48.90625 Q 71.5 48.90625 71 49.40625 Q 70.5 49.90625 70 50.90625 Q 69.5 51.90625 69 52.40625 Q 68.5 52.90625 68 52.90625 Q 67.5 52.90625 67 53.40625 Q 66.5 53.90625 66.5 54.40625 Q 66.5 54.90625 66 55.40625 L 65.499 55.90725" stroke-linecap="round" />
</g>
</svg>