<?xml version="1.0" encoding="UTF-8" standalone="no" ?>
<!DOCTYPE svg PUBLIC "-//W3C//DTD SVG 1.1//EN" "http://www.w3.org/Graphics/SVG/1.1/DTD/svg11.dtd">
<svg xmlns="http://www.w3.org/2000/svg" xmlns:xlink="http://www.w3.org/1999/xlink" version="1.1" width="1080" height="1080" viewBox="0 0 1080 1080" xml:space="preserve">
<desc>Created with Fabric.js 4.2.0</desc>
<defs>
</defs>
<g transform="matrix(1 0 0 1 540 540)" id="1a4631c6-3833-4979-800c-428af718d1e1"  >
<rect style="stroke: none; stroke-width: 1; stroke-dasharray: none; stroke-linecap: butt; stroke-dashoffset: 0; stroke-linejoin: miter; stroke-miterlimit: 4; fill: rgb(255,255,255); fill-rule: nonzero; opacity: 1;" vector-effect="non-scaling-stroke"  x="-540" y="-540" rx="0" ry="0" width="1080" height="1080" />
</g>
<g transform="matrix(0 0 0 0 0 0)" id="37db6e7e-6bf9-4c8c-abf9-e2181a272ffb"  >
</g>
<g transform="matrix(1 0 0 1 571.48 382.26)"  >
<path style="stroke: rgb(0,0,0); stroke-width: 30; stroke-dasharray: none; stroke-linecap: round; stroke-dashoffset: 0; stroke-linejoin: round; stroke-miterlimit: 10; fill: none; fill-rule: nonzero; opacity: 1;" vector-effect="non-scaling-stroke"  transform=" translate(-571.48, -382.26)" d="M 424.7582736156352 359.5419381107492 Q 424.78827361563515 359.5419381107492 434.46254071661235 360.4214169381107 Q 444.13680781758956 361.3008957654723 454.69055374592836 361.3008957654723 Q 465.2442996742671 361.3008957654723 481.07491856677524 356.90350162866446 Q 496.9055374592834 352.50610749185665 509.2182410423453 341.0728827361563 Q 521.5309446254072 329.639657980456 531.2052117263843 317.3269543973941 Q 540.8794788273615 305.01425081433223 544.3973941368077 298.8578990228013 Q 547.915309446254 292.70154723127035 551.4332247557003 288.30415309446255 Q 554.9511400651465 283.9067589576547 554.9511400651465 290.0631107491856 Q 554.9511400651465 296.2194625407166 550.5537459283387 308.5321661237785 Q 546.1563517915309 320.84486970684037 540.8794788273615 332.2780944625407 Q 535.6026058631921 343.71131921824104 526.8078175895765 355.1445439739414 Q 518.0130293159609 366.57776872964166 502.1824104234528 388.56473941368074 Q 486.3517915309446 410.5517100977198 473.15960912052117 424.6233713355049 Q 459.9674267100977 438.6950325732899 444.13680781758956 453.6461726384365 Q 428.3061889250814 468.59731270358304 415.11400651465794 480.0305374592833 Q 401.92182410423453 491.46376221498366 388.72964169381106 502.896986970684 Q 375.5374592833876 514.3302117263843 364.10423452768725 525.7634364820847 Q 352.671009771987 537.196661237785 342.1172638436482 548.6298859934852 Q 331.56351791530943 560.0631107491856 328.04560260586317 562.7015472312703 Q 324.5276872964169 565.339983713355 322.76872964169377 567.0989413680782 Q 321.0097719869707 568.8578990228012 321.0097719869707 567.9784201954396 Q 321.0097719869707 567.0989413680782 332.44299674267097 541.5940553745928 Q 343.8762214983713 516.0891693811075 354.42996742671005 500.2585504885993 Q 364.98371335504885 484.4279315960912 377.2964169381107 465.9588762214984 Q 389.6091205211726 447.4898208469055 410.71661237785014 420.225977198697 Q 431.8241042345277 392.9621335504886 448.5342019543974 368.33672638436485 Q 465.2442996742671 343.71131921824104 481.9543973941368 331.3986156351791 Q 498.66449511400646 319.08591205211724 523.2899022801303 299.73737785016283 Q 547.915309446254 280.3888436482085 576.058631921824 258.4018729641694 Q 604.201954397394 236.4149022801303 629.7068403908794 223.22271986970685 Q 655.2117263843647 210.03053745928338 677.1986970684038 205.63314332247558 Q 699.185667752443 201.23574918566774 715.0162866449512 198.59731270358304 Q 730.8469055374593 195.95887622149837 746.6775244299674 195.95887622149837 Q 762.5081433224756 195.95887622149837 774.8208469055375 199.47679153094464 Q 787.1335504885993 202.99470684039088 798.5667752442996 210.03053745928338 Q 810 217.06636807817588 813.5179153094462 231.1380293159609 Q 817.0358306188924 245.2096905537459 819.6742671009772 258.40187296416934 Q 822.3127035830619 271.5940553745928 821.4332247557003 281.26832247557 Q 820.5537459283387 290.9425895765472 814.3973941368077 303.2552931596091 Q 808.2410423452768 315.56799674267097 797.6872964169381 330.5191368078175 Q 787.1335504885993 345.4702768729641 766.0260586319218 361.3008957654723 Q 744.9185667752442 377.13151465798046 734.3648208469056 384.167345276873 Q 723.8110749185668 391.20317589576547 708.8599348534201 394.7210912052117 Q 693.9087947882736 398.23900651465794 671.042345276873 398.23900651465794 Q 648.1758957654723 398.23900651465794 626.1889250814331 396.4800488599348 Q 604.201954397394 394.7210912052117 573.4201954397394 391.2031758957654 L 542.6084364820847 387.65526058631923" stroke-linecap="round" />
</g>
<g transform="matrix(1 0 0 1 154.12 304.14)"  >
<path style="stroke: rgb(0,0,0); stroke-width: 30; stroke-dasharray: none; stroke-linecap: round; stroke-dashoffset: 0; stroke-linejoin: round; stroke-miterlimit: 10; fill: none; fill-rule: nonzero; opacity: 1;" vector-effect="non-scaling-stroke"  transform=" translate(-154.12, -304.13)" d="M 217.26127035830618 218.79532573289902 Q 217.23127035830618 218.82532573289902 211.95439739413678 223.22271986970685 Q 206.6775244299674 227.62011400651465 186.44951140065143 249.60708469055373 Q 166.22149837133549 271.5940553745928 148.6319218241042 287.42467426710095 Q 131.04234527687296 303.2552931596091 114.33224755700326 315.56799674267097 Q 97.62214983713355 327.8807003257329 94.98371335504885 332.2780944625407 Q 92.34527687296416 336.6754885993485 91.4657980456026 342.83184039087945 Q 90.58631921824103 348.9881921824104 94.10423452768728 353.3855863192182 Q 97.62214983713355 357.78298045602605 115.21172638436481 364.8188110749186 Q 132.80130293159607 371.85464169381106 148.6319218241042 372.7341205211726 Q 164.46254071661238 373.6135993485342 172.37785016286645 375.3725570032573 Q 180.29315960912052 377.13151465798046 188.2084690553746 378.89047231270354 Q 196.12377850162866 380.64942996742667 199.6416938110749 385.0468241042345 L 203.18960912052117 389.4742182410423" stroke-linecap="round" />
</g>
<g transform="matrix(1 0 0 1 949.82 436.06)"  >
<path style="stroke: rgb(0,0,0); stroke-width: 30; stroke-dasharray: none; stroke-linecap: round; stroke-dashoffset: 0; stroke-linejoin: round; stroke-miterlimit: 10; fill: none; fill-rule: nonzero; opacity: 1;" vector-effect="non-scaling-stroke"  transform=" translate(-949.82, -436.06)" d="M 915.5074592833876 371.8246416938111 Q 915.5374592833875 371.85464169381106 924.3322475570033 372.7341205211726 Q 933.1270358306189 373.6135993485342 941.9218241042345 374.4930781758958 Q 950.7166123778501 375.3725570032573 963.9087947882736 377.13151465798046 Q 977.100977198697 378.89047231270354 984.1368078175894 379.76995114006513 Q 991.172638436482 380.64942996742667 999.087947882736 381.5289087947882 Q 1007.0032573289901 382.4083876221498 1011.400651465798 383.2878664495114 Q 1015.7980456026058 384.16734527687294 1018.4364820846905 385.0468241042345 Q 1021.0749185667752 385.92630293159607 1022.8338762214983 385.92630293159607 Q 1024.5928338762214 385.92630293159607 1028.1107491856678 386.80578175895766 Q 1031.628664495114 387.6852605863192 1032.5081433224755 387.6852605863192 Q 1033.3876221498372 387.6852605863192 1036.0260586319218 388.56473941368074 Q 1038.6644951140065 389.44421824104234 1039.543973941368 389.44421824104234 Q 1040.4234527687295 389.44421824104234 1040.4234527687295 390.32369706840393 Q 1040.4234527687295 391.20317589576547 1040.4234527687295 392.082654723127 Q 1040.4234527687295 392.9621335504886 1028.1107491856676 399.11848534201954 Q 1015.7980456026058 405.2748371335505 971.8241042345276 427.26180781758956 Q 927.8501628664494 449.24877850162864 911.1400651465797 462.4409609120521 Q 894.42996742671 475.6331433224755 882.9967426710098 483.5484527687296 Q 871.5635179153094 491.46376221498366 865.4071661237784 495.86115635179146 L 859.2208143322475 500.2885504885993" stroke-linecap="round" />
</g>
</svg>